<svg width="1192" height="329" viewBox="0 0 1192 329" fill="none" xmlns="http://www.w3.org/2000/svg">
<path d="M-485.86 -196.695C-423.598 -221.746 -351.363 -218.561 -285.573 -211.987C-231.993 -206.632 -185.927 -192.443 -144.566 -157.709C-118.39 -135.727 -99.3945 -113.327 -73.7408 -89.5672C-12.2378 -32.6038 43.8906 15.8916 114.404 63.4967C272.725 170.383 449.153 258.701 643.808 254.301C714.274 252.709 783.156 244.872 849.551 220.528C902.048 201.278 953.7 178.789 1003.77 153.969C1068.39 121.945 1167.85 66.1542 1240.9 105.717" stroke="#342F2F" stroke-opacity="0.03" stroke-width="2" stroke-linecap="round"/>
<path d="M-488.722 -194.072C-426.897 -220.181 -354.617 -218.23 -288.725 -212.778C-235.061 -208.339 -188.76 -194.938 -146.812 -160.914C-120.265 -139.381 -100.891 -117.31 -74.8353 -93.9905C-12.3694 -38.0846 44.5781 9.44624 115.893 55.8415C276.014 160.012 453.924 245.307 648.476 237.587C718.904 234.792 787.643 225.782 853.612 200.308C905.774 180.166 957.034 156.798 1006.68 131.128C1070.73 98.0059 1169.23 40.5268 1242.94 78.8375" stroke="#342F2F" stroke-opacity="0.03" stroke-width="2" stroke-linecap="round"/>
<path d="M-479.117 -180.21C-416.867 -205.289 -344.629 -202.138 -278.837 -195.594C-225.254 -190.264 -179.182 -176.096 -137.804 -141.381C-111.619 -119.411 -92.6127 -97.0204 -66.948 -73.2721C-5.41873 -16.337 50.7321 32.1324 121.267 79.705C279.637 186.518 456.107 274.755 650.76 270.265C721.224 268.64 790.104 260.771 856.487 236.396C908.975 217.123 960.616 194.609 1010.68 169.767C1075.28 137.712 1174.71 81.8756 1247.78 121.404" stroke="#342F2F" stroke-opacity="0.03" stroke-width="2" stroke-linecap="round"/>
</svg>
