<svg width="125" height="409" viewBox="0 0 125 409" fill="none" xmlns="http://www.w3.org/2000/svg">
<g opacity="0.15">
<path d="M-53.5469 89.0775C-30.8502 94.1225 -10.1593 105.784 5.90942 122.589C21.9781 139.393 32.703 160.585 36.7277 183.484C40.7524 206.384 37.8962 229.963 28.5203 251.239C19.1444 272.515 3.66986 290.534 -15.9464 303.015C-35.5627 315.497 -58.4396 321.881 -81.6844 321.361C-104.929 320.841 -127.498 313.44 -146.536 300.093C-165.574 286.747 -180.227 268.054 -188.642 246.38C-197.057 224.705 -198.856 201.023 -193.811 178.326" stroke="url(#paint0_linear_63_938)" stroke-width="2"/>
<path d="M15.392 84.8606C-13.9491 61.654 -50.7934 50.0358 -88.1391 52.2137C-125.485 54.3917 -160.729 70.2141 -187.173 96.674C-213.618 123.134 -229.42 158.387 -231.576 195.734C-233.733 233.081 -222.093 269.918 -198.869 299.246C-175.646 328.574 -142.457 348.347 -105.61 354.809C-68.7635 361.271 -30.8268 353.97 0.990198 334.295C32.8072 314.619 56.2869 283.94 66.9671 248.088C77.6474 212.236 74.7838 173.71 58.9207 139.83" stroke="url(#paint1_linear_63_938)" stroke-width="2"/>
<circle cx="59.1177" cy="138.692" r="2.71159" transform="rotate(2.66484 59.1177 138.692)" fill="#181818"/>
</g>
<defs>
<linearGradient id="paint0_linear_63_938" x1="-203.157" y1="180.871" x2="-39.9052" y2="73.3509" gradientUnits="userSpaceOnUse">
<stop stop-color="#151515"/>
<stop offset="1" stop-color="#A0A0A0" stop-opacity="0.64"/>
</linearGradient>
<linearGradient id="paint1_linear_63_938" x1="30.7935" y1="150.069" x2="31.2917" y2="93.1636" gradientUnits="userSpaceOnUse">
<stop stop-color="#151515"/>
<stop offset="0.314" stop-color="#151515"/>
<stop offset="1" stop-color="#A0A0A0" stop-opacity="0.08"/>
</linearGradient>
</defs>
</svg>
