<svg width="100" height="41" viewBox="0 0 100 41" fill="none" xmlns="http://www.w3.org/2000/svg">
<g clip-path="url(#clip0_116_608)">
<path d="M18.19 19.5856C18.69 17.1556 17.79 15.4256 16.16 14.2856C14.67 13.2956 12.79 13.1456 10.81 14.1356L2.53004 17.8556C0.45004 18.7956 -0.43996 21.2256 0.45004 23.2556C1.39004 25.3356 3.77004 26.2256 5.85004 25.3356L6.94004 24.8356L5.16004 34.5056C4.66004 37.4256 6.55004 39.8056 9.13004 40.3056C11.86 40.8056 14.53 39.0156 14.98 36.2856L18.19 19.5856Z" fill="url(#paint0_linear_116_608)"/>
<path d="M93.45 13.5655C88.9 12.9055 84.3 15.5655 82.54 19.3255L82.84 17.6855C83.58 14.3655 82.2 13.4755 79.82 13.4755H76.75C73.83 13.4755 73.18 15.0655 72.83 16.8955L69.26 36.7255C68.96 38.0655 69.16 40.3955 71.79 40.3955H76.05C78.58 40.3955 79.07 38.4155 79.42 36.5255L81.15 27.0055C81.55 24.8255 81.89 23.7855 82.64 22.9855C83.78 21.6955 86.06 21.1055 87.65 22.3955C88.59 23.1855 88.94 24.5255 88.69 26.4155L86.96 36.7255C86.58 39.0055 87.55 40.3955 89.44 40.3955H93.7C96.13 40.3955 96.62 38.5155 96.97 36.5255L99.47 23.6155C100.59 18.9655 98.95 14.3655 93.45 13.5655Z" fill="url(#paint1_linear_116_608)"/>
<path d="M66.12 10.8948C68.8317 10.8948 71.03 8.71891 71.03 6.0348C71.03 3.3507 68.8317 1.1748 66.12 1.1748C63.4082 1.1748 61.21 3.3507 61.21 6.0348C61.21 8.71891 63.4082 10.8948 66.12 10.8948Z" fill="url(#paint2_linear_116_608)"/>
<path d="M66.42 36.5148C66.07 38.5948 65.48 40.3848 63.05 40.3848H58.74C56.66 40.3848 55.91 38.8448 56.31 36.8148L59.87 16.8848C60.22 14.7548 61.16 13.4648 63.79 13.4648H67.06C69.84 13.4648 70.53 14.8048 69.94 17.6748L66.42 36.5148Z" fill="url(#paint3_linear_116_608)"/>
<path d="M19.0701 13.4648C20.1601 14.7548 21.4501 16.3448 20.8001 20.2048L19.1201 29.2848L19.4201 36.5748C19.4701 39.2048 20.7601 40.3448 22.9401 40.3448H28.4901C30.2201 40.3448 30.9701 39.0048 31.6601 37.3248L35.8701 26.9648L36.3201 36.8748C36.3701 39.0548 37.4601 40.3948 39.4901 40.3948H45.7901C47.5701 40.3948 48.3201 39.3048 49.1101 37.3748L57.1901 17.5448C58.0801 15.5148 57.5401 13.4848 55.3601 13.4848H51.3401C49.8501 13.4848 48.8101 13.9848 48.2201 15.4148L42.7601 28.6848L42.2601 16.8348C42.1601 14.3048 40.9701 13.4648 39.5301 13.4648H35.4201C33.7801 13.4648 32.8401 14.1048 32.3501 15.3448L26.9001 28.7348L26.4001 16.5348C26.3501 14.2548 25.5601 13.4648 23.7201 13.4648H20.1501H19.0701Z" fill="url(#paint4_linear_116_608)"/>
</g>
<defs>
<linearGradient id="paint0_linear_116_608" x1="9.21366" y1="44.1035" x2="9.21366" y2="12.8335" gradientUnits="userSpaceOnUse">
<stop stop-color="#0167CA"/>
<stop offset="1" stop-color="#38A8FA"/>
</linearGradient>
<linearGradient id="paint1_linear_116_608" x1="84.4771" y1="41.0947" x2="84.4771" y2="12.7924" gradientUnits="userSpaceOnUse">
<stop stop-color="#C8C7C7"/>
<stop offset="0.0762789" stop-color="#D6D5D5"/>
<stop offset="0.216" stop-color="#E8E8E8"/>
<stop offset="0.3802" stop-color="#F5F5F5"/>
<stop offset="0.5898" stop-color="#FDFDFD"/>
<stop offset="1" stop-color="white"/>
</linearGradient>
<linearGradient id="paint2_linear_116_608" x1="66.1176" y1="13.3837" x2="66.1176" y2="-0.513215" gradientUnits="userSpaceOnUse">
<stop stop-color="#0167CA"/>
<stop offset="1" stop-color="#38A8FA"/>
</linearGradient>
<linearGradient id="paint3_linear_116_608" x1="63.1659" y1="41.1433" x2="63.1659" y2="12.8514" gradientUnits="userSpaceOnUse">
<stop stop-color="#C8C7C7"/>
<stop offset="0.0762789" stop-color="#D6D5D5"/>
<stop offset="0.216" stop-color="#E8E8E8"/>
<stop offset="0.3802" stop-color="#F5F5F5"/>
<stop offset="0.5898" stop-color="#FDFDFD"/>
<stop offset="1" stop-color="white"/>
</linearGradient>
<linearGradient id="paint4_linear_116_608" x1="38.3351" y1="41.0925" x2="38.3351" y2="12.8516" gradientUnits="userSpaceOnUse">
<stop stop-color="#C8C7C7"/>
<stop offset="0.0762789" stop-color="#D6D5D5"/>
<stop offset="0.216" stop-color="#E8E8E8"/>
<stop offset="0.3802" stop-color="#F5F5F5"/>
<stop offset="0.5898" stop-color="#FDFDFD"/>
<stop offset="1" stop-color="white"/>
</linearGradient>
<clipPath id="clip0_116_608">
<rect width="100" height="40" fill="white" transform="translate(0 0.785156)"/>
</clipPath>
</defs>
</svg>
