<svg width="346" height="124" viewBox="0 0 346 124" fill="none" xmlns="http://www.w3.org/2000/svg">
<g opacity="0.03">
<path d="M62.9374 49.8001C64.6674 41.2951 61.5534 35.2401 55.9136 31.2501C50.7582 27.7851 44.2534 27.2601 37.4026 30.7251L8.7538 43.7451C1.557 47.0351 -1.5224 55.5401 1.557 62.6451C4.8094 69.9251 13.0442 73.0401 20.241 69.9251L24.0124 68.1751L17.8536 102.02C16.1236 112.24 22.663 120.57 31.5898 122.32C41.0356 124.07 50.2738 117.805 51.8308 108.25L62.9374 49.8001Z" fill="url(#paint0_linear_31_93)"/>
<path d="M323.337 28.7299C307.594 26.4199 291.678 35.7299 285.588 48.8899L286.626 43.1499C289.187 31.5299 284.412 28.4149 276.177 28.4149H265.555C255.452 28.4149 253.203 33.9799 251.992 40.3849L239.64 109.79C238.602 114.48 239.294 122.635 248.393 122.635H263.133C271.887 122.635 273.582 115.705 274.793 109.09L280.779 75.7699C282.163 68.1399 283.339 64.4999 285.934 61.6999C289.879 57.1849 297.768 55.1199 303.269 59.6349C306.521 62.3999 307.732 67.0899 306.867 73.7049L300.882 109.79C299.567 117.77 302.923 122.635 309.462 122.635H324.202C332.61 122.635 334.305 116.055 335.516 109.09L344.166 63.9049C348.041 47.6299 342.367 31.5299 323.337 28.7299Z" fill="#333333"/>
<path d="M228.775 19.3852C238.158 19.3852 245.764 11.7696 245.764 2.37523C245.764 -7.01913 238.158 -14.6348 228.775 -14.6348C219.393 -14.6348 211.787 -7.01913 211.787 2.37523C211.787 11.7696 219.393 19.3852 228.775 19.3852Z" fill="url(#paint1_linear_31_93)"/>
<path d="M229.813 109.055C228.602 116.335 226.561 122.6 218.153 122.6H203.24C196.044 122.6 193.449 117.21 194.833 110.105L207.15 40.3499C208.361 32.8949 211.614 28.3799 220.713 28.3799H232.028C241.646 28.3799 244.034 33.0699 241.992 43.1149L229.813 109.055Z" fill="#333333"/>
<path d="M65.9822 28.3799C69.7536 32.8949 74.217 38.4599 71.968 51.9699L66.1552 83.7499L67.1932 109.265C67.3662 118.47 71.8296 122.46 79.3724 122.46H98.5754C104.561 122.46 107.156 117.77 109.544 111.89L124.11 75.6299L125.667 110.315C125.84 117.945 129.612 122.635 136.635 122.635H158.433C164.592 122.635 167.187 118.82 169.921 112.065L197.877 42.6599C200.957 35.5549 199.088 28.4499 191.546 28.4499H177.636C172.481 28.4499 168.883 30.1999 166.841 35.2049L147.95 81.6499L146.22 40.1749C145.874 31.3199 141.756 28.3799 136.774 28.3799H122.553C116.879 28.3799 113.626 30.6199 111.931 34.9599L93.074 81.8249L91.344 39.1249C91.171 31.1449 88.4376 28.3799 82.0712 28.3799H69.719H65.9822Z" fill="#333333"/>
</g>
<defs>
<linearGradient id="paint0_linear_31_93" x1="31.8791" y1="135.613" x2="31.8791" y2="26.1679" gradientUnits="userSpaceOnUse">
<stop stop-color="#0167CA"/>
<stop offset="1" stop-color="#38A8FA"/>
</linearGradient>
<linearGradient id="paint1_linear_31_93" x1="228.767" y1="28.0963" x2="228.767" y2="-20.5428" gradientUnits="userSpaceOnUse">
<stop stop-color="#0167CA"/>
<stop offset="1" stop-color="#38A8FA"/>
</linearGradient>
</defs>
</svg>
