<svg width="114" height="46" viewBox="0 0 114 46" fill="none" xmlns="http://www.w3.org/2000/svg">
<g clip-path="url(#clip0_1_2818)">
<path d="M20.7366 21.6201C21.3066 18.8256 20.2806 16.8361 18.4224 15.5251C16.7238 14.3866 14.5806 14.2141 12.3234 15.3526L2.88424 19.6306C0.513035 20.7116 -0.501564 23.5061 0.513035 25.8406C1.58464 28.2326 4.29784 29.2561 6.66903 28.2326L7.91163 27.6576L5.88243 38.7781C5.31243 42.1361 7.46703 44.8731 10.4082 45.4481C13.5204 46.0231 16.5642 43.9646 17.0772 40.8251L20.7366 21.6201Z" fill="url(#paint0_linear_1_2818)"/>
<path d="M106.533 14.6969C101.346 13.9379 96.102 16.9969 94.0956 21.3209L94.4376 19.4349C95.2812 15.6169 93.708 14.5934 90.9948 14.5934H87.495C84.1662 14.5934 83.4252 16.4219 83.0262 18.5264L78.9564 41.3309C78.6144 42.8719 78.8424 45.5514 81.8406 45.5514H86.697C89.5812 45.5514 90.1398 43.2744 90.5388 41.1009L92.511 30.1529C92.967 27.6459 93.3546 26.4499 94.2096 25.5299C95.5092 24.0464 98.1084 23.3679 99.921 24.8514C100.993 25.7599 101.392 27.3009 101.107 29.4744L99.1344 41.3309C98.7012 43.9529 99.807 45.5514 101.962 45.5514H106.818C109.588 45.5514 110.147 43.3894 110.546 41.1009L113.396 26.2544C114.673 20.9069 112.803 15.6169 106.533 14.6969Z" fill="#333333"/>
<path d="M75.3767 11.6262C78.4681 11.6262 80.9741 9.12396 80.9741 6.03724C80.9741 2.95052 78.4681 0.448242 75.3767 0.448242C72.2853 0.448242 69.7793 2.95052 69.7793 6.03724C69.7793 9.12396 72.2853 11.6262 75.3767 11.6262Z" fill="url(#paint1_linear_1_2818)"/>
<path d="M75.7187 41.0895C75.3197 43.4815 74.6471 45.54 71.8769 45.54H66.9635C64.5923 45.54 63.7373 43.769 64.1933 41.4345L68.2517 18.515C68.6507 16.0655 69.7223 14.582 72.7205 14.582H76.4483C79.6175 14.582 80.4041 16.123 79.7315 19.4235L75.7187 41.0895Z" fill="#333333"/>
<path d="M21.7397 14.582C22.9823 16.0655 24.4529 17.894 23.7119 22.333L21.7967 32.775L22.1387 41.1585C22.1957 44.183 23.6663 45.494 26.1515 45.494H32.4785C34.4507 45.494 35.3057 43.953 36.0923 42.021L40.8917 30.107L41.4047 41.5035C41.4617 44.0105 42.7043 45.5515 45.0185 45.5515H52.2005C54.2297 45.5515 55.0847 44.298 55.9853 42.0785L65.1965 19.274C66.2111 16.9395 65.5955 14.605 63.1103 14.605H58.5275C56.8289 14.605 55.6433 15.18 54.9707 16.8245L48.7463 32.085L48.1763 18.4575C48.0623 15.548 46.7057 14.582 45.0641 14.582H40.3787C38.5091 14.582 37.4375 15.318 36.8789 16.744L30.6659 32.1425L30.0959 18.1125C30.0389 15.4905 29.1383 14.582 27.0407 14.582H22.9709H21.7397Z" fill="#333333"/>
</g>
<defs>
<linearGradient id="paint0_linear_1_2818" x1="10.5036" y1="49.8156" x2="10.5036" y2="13.8552" gradientUnits="userSpaceOnUse">
<stop stop-color="#0167CA"/>
<stop offset="1" stop-color="#38A8FA"/>
</linearGradient>
<linearGradient id="paint1_linear_1_2818" x1="75.374" y1="14.4885" x2="75.374" y2="-1.49298" gradientUnits="userSpaceOnUse">
<stop stop-color="#0167CA"/>
<stop offset="1" stop-color="#38A8FA"/>
</linearGradient>
<clipPath id="clip0_1_2818">
<rect width="114" height="46" fill="white"/>
</clipPath>
</defs>
</svg>
