<svg width="166" height="425" viewBox="0 0 166 425" fill="none" xmlns="http://www.w3.org/2000/svg">
<path d="M95.441 224.2C98.3254 252.886 111.648 279.512 132.877 299.019C154.106 318.525 181.762 329.553 210.588 330.006C239.415 330.459 267.403 320.305 289.235 301.475C311.066 282.645 325.218 256.45 329.002 227.869C332.786 199.289 325.938 170.314 309.76 146.451C293.581 122.588 269.199 105.501 241.248 98.4364C213.297 91.3718 183.724 94.8223 158.151 108.132C132.577 121.442 112.784 143.684 102.534 170.63" stroke="url(#paint0_linear_48_281)" stroke-width="2"/>
<circle cx="101.451" cy="171.398" r="3.80923" transform="rotate(-131.419 101.451 171.398)" fill="#181818"/>
<defs>
<linearGradient id="paint0_linear_48_281" x1="123.11" y1="180.65" x2="91.2783" y2="210.944" gradientUnits="userSpaceOnUse">
<stop stop-color="#151515"/>
<stop offset="0.314" stop-color="#151515"/>
<stop offset="1" stop-color="#A0A0A0" stop-opacity="0.08"/>
</linearGradient>
</defs>
</svg>
