<svg width="703" height="711" viewBox="0 0 703 711" fill="none" xmlns="http://www.w3.org/2000/svg">
<path d="M392.416 142.298C434.331 149.589 473.142 169.144 503.942 198.492C534.742 227.84 556.147 265.662 565.452 307.176C574.756 348.689 571.542 392.029 556.215 431.716C540.887 471.402 514.136 505.653 479.343 530.135C444.55 554.618 403.279 568.234 360.748 569.261C318.217 570.287 276.336 558.679 240.403 535.904C204.469 513.129 176.096 480.209 158.871 441.309C141.647 402.408 136.344 359.273 143.635 317.359" stroke="url(#paint0_linear_4_3125)" stroke-width="2"/>
<path d="M517.923 128.921C462.368 89.0355 394.095 70.9499 326.08 78.1016C258.065 85.2533 195.047 117.144 149.003 167.713C102.959 218.281 77.0978 284.004 76.3344 352.39C75.5709 420.776 99.9583 487.059 144.862 538.643C189.765 590.228 252.055 623.517 319.894 632.185C387.733 640.854 456.392 624.297 512.824 585.661C569.256 547.026 609.527 489.004 625.984 422.623C642.441 356.243 633.936 286.129 602.087 225.607" stroke="url(#paint1_linear_4_3125)" stroke-width="2"/>
<circle cx="145.663" cy="315.339" r="4.94264" fill="#181818"/>
<circle cx="601.621" cy="223.9" r="4.94264" fill="#181818"/>
<defs>
<linearGradient id="paint0_linear_4_3125" x1="127.644" y1="322.926" x2="415.782" y2="113.317" gradientUnits="userSpaceOnUse">
<stop stop-color="#151515"/>
<stop offset="1" stop-color="#A0A0A0" stop-opacity="0.64"/>
</linearGradient>
<linearGradient id="paint1_linear_4_3125" x1="551.013" y1="247.017" x2="547.097" y2="143.36" gradientUnits="userSpaceOnUse">
<stop stop-color="#151515"/>
<stop offset="0.314" stop-color="#151515"/>
<stop offset="1" stop-color="#A0A0A0" stop-opacity="0.08"/>
</linearGradient>
</defs>
</svg>
