<svg width="90" height="305" viewBox="0 0 90 305" fill="none" xmlns="http://www.w3.org/2000/svg">
<path d="M-24.9858 93.0457C-13.2961 100.415 -4.05421 111.086 1.57114 123.707C7.19649 136.329 8.95268 150.336 6.61761 163.956C4.28255 177.576 -2.03889 190.198 -11.5473 200.225C-21.0557 210.253 -33.3241 217.235 -46.801 220.29C-60.2778 223.345 -74.3579 222.335 -87.2607 217.387C-100.163 212.44 -111.309 203.778 -119.289 192.496C-127.269 181.214 -131.724 167.819 -132.091 154.005C-132.458 140.191 -128.72 126.579 -121.351 114.889" stroke="url(#paint0_linear_48_332)" stroke-width="2"/>
<path d="M14.5351 104.434C2.7499 85.5458 -15.5638 71.6457 -36.9256 65.3752C-58.2875 59.1047 -81.2086 60.9008 -101.333 70.4222C-121.457 79.9435 -137.382 96.5265 -146.082 117.02C-154.781 137.513 -155.648 160.488 -148.518 181.578C-141.389 202.669 -126.759 220.405 -107.41 231.417C-88.0602 242.428 -65.3397 245.947 -43.566 241.304C-21.7922 236.662 -2.48284 224.182 10.6926 206.236C23.8681 188.29 29.9913 166.129 27.8986 143.965" stroke="url(#paint1_linear_48_332)" stroke-width="2"/>
<circle cx="28.265" cy="143.265" r="2.50143" transform="rotate(22.3614 28.265 143.265)" fill="#181818"/>
<defs>
<linearGradient id="paint0_linear_48_332" x1="-127.463" y1="114.224" x2="-13.9254" y2="86.603" gradientUnits="userSpaceOnUse">
<stop stop-color="#151515"/>
<stop offset="1" stop-color="#A0A0A0" stop-opacity="0.64"/>
</linearGradient>
<linearGradient id="paint1_linear_48_332" x1="10.4066" y1="144.022" x2="22.1517" y2="112.097" gradientUnits="userSpaceOnUse">
<stop stop-color="#151515"/>
<stop offset="0.314" stop-color="#151515"/>
<stop offset="1" stop-color="#A0A0A0" stop-opacity="0.08"/>
</linearGradient>
</defs>
</svg>
