<svg width="1192" height="329" viewBox="0 0 1192 329" fill="none" xmlns="http://www.w3.org/2000/svg">
<path d="M-485.86 -196.696C-423.598 -221.746 -351.363 -218.562 -285.573 -211.987C-231.993 -206.633 -185.927 -192.444 -144.566 -157.709C-118.39 -135.727 -99.3945 -113.328 -73.7408 -89.5677C-12.2378 -32.6043 43.8906 15.8911 114.404 63.4963C272.725 170.383 449.153 258.701 643.808 254.301C714.274 252.708 783.156 244.872 849.551 220.527C902.048 201.278 953.7 178.788 1003.77 153.969C1068.39 121.944 1167.85 66.1537 1240.9 105.716" stroke="#342F2F" stroke-opacity="0.03" stroke-width="2" stroke-linecap="round"/>
<path d="M-488.722 -194.073C-426.897 -220.182 -354.617 -218.23 -288.725 -212.779C-235.061 -208.339 -188.76 -194.938 -146.812 -160.914C-120.265 -139.382 -100.891 -117.31 -74.8353 -93.991C-12.3694 -38.085 44.5781 9.44575 115.893 55.841C276.014 160.011 453.924 245.307 648.476 237.586C718.904 234.792 787.643 225.781 853.612 200.308C905.774 180.165 957.034 156.798 1006.68 131.128C1070.73 98.0054 1169.23 40.5264 1242.94 78.837" stroke="#342F2F" stroke-opacity="0.03" stroke-width="2" stroke-linecap="round"/>
<path d="M-479.117 -180.21C-416.867 -205.29 -344.629 -202.138 -278.837 -195.594C-225.254 -190.265 -179.182 -176.097 -137.804 -141.381C-111.619 -119.411 -92.6127 -97.0209 -66.948 -73.2725C-5.41873 -16.3375 50.7321 32.1319 121.267 79.7045C279.637 186.518 456.107 274.755 650.76 270.265C721.224 268.639 790.104 260.771 856.487 236.396C908.975 217.122 960.616 194.609 1010.68 169.766C1075.28 137.711 1174.71 81.8751 1247.78 121.404" stroke="#342F2F" stroke-opacity="0.03" stroke-width="2" stroke-linecap="round"/>
</svg>
