<svg width="1440" height="392" viewBox="0 0 1440 392" fill="none" xmlns="http://www.w3.org/2000/svg">
<path d="M-235.204 71.7139C-176.966 38.3597 -104.977 31.6059 -38.9073 29.0942C14.901 27.0486 62.478 34.7849 108.213 63.5178C137.156 81.7016 159.044 101.284 187.715 121.3C256.45 169.289 318.7 209.627 395.076 247.11C566.562 331.27 753.437 394.553 945.649 363.495C1015.23 352.252 1082.39 335.041 1144.81 301.819C1194.18 275.551 1242.25 246.189 1288.45 214.736C1348.06 174.151 1438.93 105.245 1516.71 134.414" stroke="white" stroke-width="2" stroke-linecap="round"/>
<path d="M-237.268 73.6764C-179.608 39.3336 -107.744 31.3526 -41.7268 27.7141C12.0389 24.7508 59.7409 31.6744 105.959 59.6228C135.208 77.3102 157.428 96.5159 186.435 116.041C255.979 162.85 318.908 202.12 395.913 238.295C568.809 319.517 756.737 379.603 948.391 345.27C1017.77 332.841 1084.62 314.487 1146.47 280.205C1195.38 253.099 1242.95 222.921 1288.6 190.684C1347.51 149.088 1437.19 78.6422 1515.46 106.48" stroke="white" stroke-width="2" stroke-linecap="round"/>
<path d="M-226.263 91.1187C-168.041 57.7376 -96.0545 50.9505 -29.9863 48.4083C23.8211 46.3378 71.4016 54.0522 117.149 82.7639C146.101 100.934 167.999 120.506 196.678 140.51C265.436 188.467 327.704 228.776 404.098 266.224C575.622 350.305 762.527 413.501 954.724 382.354C1024.3 371.079 1091.45 353.837 1153.86 320.586C1203.21 294.295 1251.27 264.911 1297.46 233.437C1357.05 192.824 1447.88 123.876 1525.68 153.009" stroke="white" stroke-width="2" stroke-linecap="round"/>
</svg>
