<svg width="19" height="19" viewBox="0 0 19 19" fill="none" xmlns="http://www.w3.org/2000/svg">
<g clip-path="url(#clip0_2001_429)">
<path d="M11.1951 9.5L18.876 1.81942C19.0414 1.65389 19.0414 1.38568 18.876 1.22015L17.7806 0.124097C17.7011 0.0448349 17.593 0 17.4808 0C17.3683 0 17.2604 0.0448349 17.1809 0.124097L9.50014 7.80488L1.81936 0.124097C1.66023 -0.0350273 1.37861 -0.0348271 1.21989 0.124097L0.124635 1.22015C-0.040894 1.38568 -0.040894 1.65389 0.124635 1.81942L7.80542 9.5L0.124635 17.1806C-0.040894 17.3461 -0.040894 17.6143 0.124635 17.7798L1.22009 18.8759C1.29955 18.9552 1.40743 19 1.51992 19C1.63241 19 1.74009 18.9552 1.81956 18.8759L9.50034 11.1951L17.1811 18.8759C17.2606 18.9552 17.3687 19 17.481 19C17.5932 19 17.7013 18.9552 17.7808 18.8759L18.8762 17.7798C19.0416 17.6143 19.0416 17.3461 18.8762 17.1806L11.1951 9.5Z" fill="#333333"/>
</g>
<defs>
<clipPath id="clip0_2001_429">
<rect width="19" height="19" fill="white"/>
</clipPath>
</defs>
</svg>
