<svg width="22" height="23" viewBox="0 0 22 23" fill="none" xmlns="http://www.w3.org/2000/svg">
<g clip-path="url(#clip0_7_607)">
<path d="M20.3708 0.5H8.20994C7.34324 0.5 6.63818 1.2051 6.63818 2.07176V5.76077H8.07297V2.07176C8.07297 1.99624 8.13442 1.93478 8.20994 1.93478H20.3708C20.4463 1.93478 20.5077 1.99624 20.5077 2.07176V14.2326C20.5077 14.3082 20.4463 14.3696 20.3708 14.3696H16.7968V15.8044H20.3708C21.2374 15.8044 21.9425 15.0993 21.9425 14.2326V2.07176C21.9425 1.2051 21.2374 0.5 20.3708 0.5Z" fill="white"/>
<path d="M13.7901 7.19531H1.6293C0.762595 7.19531 0.0574951 7.90041 0.0574951 8.76712V20.928C0.0575429 21.7947 0.762595 22.4998 1.6293 22.4998H13.7901C14.6568 22.4998 15.3619 21.7947 15.3619 20.928V8.76712C15.362 7.90041 14.6568 7.19531 13.7901 7.19531ZM13.7902 21.065H1.6293C1.55373 21.065 1.49228 21.0035 1.49228 20.928V8.76712C1.49228 8.69155 1.55373 8.6301 1.6293 8.6301H13.7901C13.8657 8.6301 13.9272 8.69155 13.9272 8.76712V20.928H13.9272C13.9272 21.0035 13.8657 21.065 13.7902 21.065Z" fill="white"/>
</g>
<defs>
<clipPath id="clip0_7_607">
<rect width="22" height="22" fill="white" transform="translate(0 0.5)"/>
</clipPath>
</defs>
</svg>
