<svg width="24" height="24" viewBox="0 0 24 24" fill="none" xmlns="http://www.w3.org/2000/svg">
<path d="M13.9166 21.1501H10.0833V22.5876H13.9166V21.1501ZM3.13538 14.2022V10.3689H1.69788V14.2022H3.13538ZM20.8645 13.7833V14.2022H22.302V13.7833H20.8645ZM14.7707 5.20452L18.5645 8.61897L19.5261 7.55047L15.7324 4.13604L14.7707 5.20452ZM22.302 13.7833C22.302 12.1653 22.3165 11.1408 21.9083 10.2241L20.5952 10.8089C20.8501 11.3813 20.8645 12.0383 20.8645 13.7833H22.302ZM18.5645 8.61897C19.8616 9.78629 20.3402 10.2366 20.5952 10.8089L21.9083 10.2241C21.5 9.30742 20.7288 8.63287 19.5261 7.55047L18.5645 8.61897ZM10.1119 3.42095C11.6277 3.42095 12.1998 3.43204 12.7096 3.62769L13.2246 2.28561C12.4083 1.97235 11.5189 1.98345 10.1119 1.98345V3.42095ZM15.7324 4.13604C14.6916 3.19936 14.0409 2.59883 13.2246 2.28561L12.7096 3.62769C13.2196 3.82338 13.6497 4.19563 14.7707 5.20452L15.7324 4.13604ZM10.0833 21.1501C8.25592 21.1501 6.9577 21.1486 5.97286 21.0161C5.00869 20.8866 4.45319 20.6434 4.04761 20.2379L3.03115 21.2544C3.74834 21.9715 4.65774 22.2898 5.78132 22.4409C6.8842 22.5891 8.29656 22.5876 10.0833 22.5876V21.1501ZM1.69788 14.2022C1.69788 15.9889 1.69635 17.4013 1.84463 18.5042C1.99569 19.6277 2.31397 20.5372 3.03115 21.2544L4.04761 20.2379C3.64204 19.8323 3.39894 19.2768 3.26931 18.3127C3.1369 17.3278 3.13538 16.0295 3.13538 14.2022H1.69788ZM13.9166 22.5876C15.7033 22.5876 17.1157 22.5891 18.2186 22.4409C19.3421 22.2898 20.2516 21.9715 20.9688 21.2544L19.9523 20.2379C19.5467 20.6434 18.9912 20.8866 18.0271 21.0161C17.0422 21.1486 15.744 21.1501 13.9166 21.1501V22.5876ZM20.8645 14.2022C20.8645 16.0295 20.863 17.3278 20.7306 18.3127C20.601 19.2768 20.3579 19.8323 19.9523 20.2379L20.9688 21.2544C21.6859 20.5372 22.0042 19.6277 22.1553 18.5042C22.3036 17.4013 22.302 15.9889 22.302 14.2022H20.8645ZM3.13538 10.3689C3.13538 8.54149 3.1369 7.24327 3.26931 6.25843C3.39894 5.29426 3.64204 4.73876 4.04761 4.33318L3.03115 3.31672C2.31397 4.03391 1.99569 4.94331 1.84463 6.06689C1.69635 7.16977 1.69788 8.58213 1.69788 10.3689H3.13538ZM10.1119 1.98345C8.31553 1.98345 6.89628 1.98193 5.78888 2.13014C4.66135 2.28105 3.74889 2.59898 3.03115 3.31672L4.04761 4.33318C4.45263 3.92817 5.00984 3.68473 5.97957 3.55494C6.96943 3.42246 8.27502 3.42095 10.1119 3.42095V1.98345Z" fill="#333333"/>
<path d="M13.84 21.945H5.09997L2.79997 20.105L2.33997 11.365L2.79997 4.92496L5.09997 3.08496H12.92L21.2 9.98496V18.725L19.82 21.025L13.84 21.945Z" fill="#333333"/>
<path d="M6.25 14.6807H13.9167" stroke="white" stroke-width="1.6" stroke-linecap="round"/>
<path d="M6.25 18.0352H11.5208" stroke="white" stroke-width="1.6" stroke-linecap="round"/>
<path d="M12.9584 3.18066V5.5765C12.9584 7.83531 12.9584 8.96471 13.6601 9.66644C14.3619 10.3682 15.4912 10.3682 17.75 10.3682H21.5834" fill="white"/>
<path d="M12.9584 3.18066V5.5765C12.9584 7.83531 12.9584 8.96471 13.6601 9.66644C14.3619 10.3682 15.4912 10.3682 17.75 10.3682H21.5834" stroke="#333333" stroke-width="1.6"/>
</svg>
