<svg width="18" height="19" viewBox="0 0 18 19" fill="none" xmlns="http://www.w3.org/2000/svg">
<g clip-path="url(#clip0_116_652)">
<path d="M9 2.40586C11.4047 2.40586 11.6895 2.41641 12.6352 2.45859C13.5141 2.49727 13.9887 2.64492 14.3051 2.76797C14.7234 2.92969 15.0258 3.12656 15.3387 3.43945C15.6551 3.75586 15.8484 4.05469 16.0102 4.47305C16.1332 4.78945 16.2809 5.26758 16.3195 6.14297C16.3617 7.09219 16.3723 7.37695 16.3723 9.77812C16.3723 12.1828 16.3617 12.4676 16.3195 13.4133C16.2809 14.2922 16.1332 14.7668 16.0102 15.0832C15.8484 15.5016 15.6516 15.8039 15.3387 16.1168C15.0223 16.4332 14.7234 16.6266 14.3051 16.7883C13.9887 16.9113 13.5105 17.059 12.6352 17.0977C11.6859 17.1398 11.4012 17.1504 9 17.1504C6.59531 17.1504 6.31055 17.1398 5.36484 17.0977C4.48594 17.059 4.01133 16.9113 3.69492 16.7883C3.27656 16.6266 2.97422 16.4297 2.66133 16.1168C2.34492 15.8004 2.15156 15.5016 1.98984 15.0832C1.8668 14.7668 1.71914 14.2887 1.68047 13.4133C1.63828 12.4641 1.62773 12.1793 1.62773 9.77812C1.62773 7.37344 1.63828 7.08867 1.68047 6.14297C1.71914 5.26406 1.8668 4.78945 1.98984 4.47305C2.15156 4.05469 2.34844 3.75234 2.66133 3.43945C2.97773 3.12305 3.27656 2.92969 3.69492 2.76797C4.01133 2.64492 4.48945 2.49727 5.36484 2.45859C6.31055 2.41641 6.59531 2.40586 9 2.40586ZM9 0.785156C6.55664 0.785156 6.25078 0.795703 5.29102 0.837891C4.33477 0.880078 3.67734 1.03477 3.10781 1.25625C2.51367 1.48828 2.01094 1.79414 1.51172 2.29687C1.00898 2.79609 0.703125 3.29883 0.471094 3.88945C0.249609 4.4625 0.0949219 5.11641 0.0527344 6.07266C0.0105469 7.03594 0 7.3418 0 9.78516C0 12.2285 0.0105469 12.5344 0.0527344 13.4941C0.0949219 14.4504 0.249609 15.1078 0.471094 15.6773C0.703125 16.2715 1.00898 16.7742 1.51172 17.2734C2.01094 17.7727 2.51367 18.082 3.1043 18.3105C3.67734 18.532 4.33125 18.6867 5.2875 18.7289C6.24727 18.7711 6.55312 18.7816 8.99648 18.7816C11.4398 18.7816 11.7457 18.7711 12.7055 18.7289C13.6617 18.6867 14.3191 18.532 14.8887 18.3105C15.4793 18.082 15.982 17.7727 16.4813 17.2734C16.9805 16.7742 17.2898 16.2715 17.5184 15.6809C17.7398 15.1078 17.8945 14.4539 17.9367 13.4977C17.9789 12.5379 17.9895 12.232 17.9895 9.78867C17.9895 7.34531 17.9789 7.03945 17.9367 6.07969C17.8945 5.12344 17.7398 4.46602 17.5184 3.89648C17.2969 3.29883 16.991 2.79609 16.4883 2.29687C15.9891 1.79766 15.4863 1.48828 14.8957 1.25977C14.3227 1.03828 13.6688 0.883594 12.7125 0.841406C11.7492 0.795703 11.4434 0.785156 9 0.785156Z" fill="white"/>
<path d="M9 5.16211C6.44766 5.16211 4.37695 7.23281 4.37695 9.78516C4.37695 12.3375 6.44766 14.4082 9 14.4082C11.5523 14.4082 13.623 12.3375 13.623 9.78516C13.623 7.23281 11.5523 5.16211 9 5.16211ZM9 12.784C7.34414 12.784 6.00117 11.441 6.00117 9.78516C6.00117 8.1293 7.34414 6.78633 9 6.78633C10.6559 6.78633 11.9988 8.1293 11.9988 9.78516C11.9988 11.441 10.6559 12.784 9 12.784Z" fill="white"/>
<path d="M14.8852 4.97969C14.8852 5.57735 14.4 6.05899 13.8059 6.05899C13.2082 6.05899 12.7266 5.57383 12.7266 4.97969C12.7266 4.38203 13.2117 3.90039 13.8059 3.90039C14.4 3.90039 14.8852 4.38555 14.8852 4.97969Z" fill="white"/>
</g>
<defs>
<clipPath id="clip0_116_652">
<rect width="18" height="18" fill="white" transform="translate(0 0.785156)"/>
</clipPath>
</defs>
</svg>
