<svg width="18" height="14" viewBox="0 0 18 14" fill="none" xmlns="http://www.w3.org/2000/svg">
<path d="M17.25 0.878906V4.25391L9 7.62891L0.75 4.25391V0.878906C0.75 0.65513 0.836919 0.440519 0.991637 0.282285C1.14635 0.124051 1.3562 0.0351562 1.575 0.0351562H16.425C16.6438 0.0351562 16.8536 0.124051 17.0084 0.282285C17.1631 0.440519 17.25 0.65513 17.25 0.878906ZM0.75 6.07134V12.6914C0.75 12.9152 0.836919 13.1298 0.991637 13.288C1.14635 13.4463 1.3562 13.5352 1.575 13.5352H16.425C16.6438 13.5352 16.8536 13.4463 17.0084 13.288C17.1631 13.1298 17.25 12.9152 17.25 12.6914V6.07134L9 9.44634L0.75 6.07134Z" fill="white"/>
</svg>
