<svg width="18" height="18" viewBox="0 0 18 18" fill="none" xmlns="http://www.w3.org/2000/svg">
<path d="M8.44369 1.23583C8.59764 0.865688 9.12198 0.865688 9.27593 1.23583L11.3369 6.19098C11.4018 6.34703 11.5485 6.45364 11.717 6.46715L17.0665 6.89602C17.4661 6.92805 17.6281 7.42673 17.3237 7.68753L13.2479 11.1788C13.1196 11.2888 13.0635 11.4613 13.1027 11.6257L14.348 16.8459C14.441 17.2358 14.0168 17.544 13.6747 17.3351L9.09473 14.5377C8.95051 14.4496 8.76912 14.4496 8.62489 14.5377L4.04497 17.3351C3.70286 17.544 3.27866 17.2358 3.37167 16.8459L4.61688 11.6257C4.65609 11.4613 4.60004 11.2888 4.47169 11.1788L0.395933 7.68753C0.0914822 7.42673 0.253513 6.92805 0.65311 6.89602L6.00262 6.46715C6.17108 6.45364 6.31782 6.34703 6.38272 6.19098L8.44369 1.23583Z" fill="#FEC900"/>
</svg>
