<svg width="18" height="19" viewBox="0 0 18 19" fill="none" xmlns="http://www.w3.org/2000/svg">
<path fill-rule="evenodd" clip-rule="evenodd" d="M18 9.78516C18 14.7557 13.9706 18.7852 9 18.7852C4.02944 18.7852 0 14.7557 0 9.78516C0 4.81459 4.02944 0.785156 9 0.785156C13.9706 0.785156 18 4.81459 18 9.78516ZM9.32252 7.42935C8.44714 7.79345 6.6976 8.54705 4.07392 9.69015C3.64787 9.85957 3.42469 10.0253 3.40438 10.1874C3.37004 10.4613 3.71303 10.5691 4.1801 10.716C4.24364 10.736 4.30947 10.7567 4.37695 10.7786C4.83648 10.928 5.45462 11.1027 5.77597 11.1097C6.06746 11.116 6.3928 10.9958 6.75198 10.7492C9.20337 9.09441 10.4688 8.25801 10.5482 8.23998C10.6043 8.22726 10.6819 8.21127 10.7346 8.25804C10.7872 8.30481 10.782 8.3934 10.7765 8.41716C10.7425 8.56201 9.39609 9.81373 8.69934 10.4615C8.48213 10.6634 8.32806 10.8067 8.29656 10.8394C8.226 10.9127 8.1541 10.982 8.08499 11.0486C7.65808 11.4602 7.33793 11.7688 8.10271 12.2727C8.47023 12.5149 8.76432 12.7152 9.05772 12.915C9.37813 13.1332 9.69772 13.3509 10.1112 13.6219C10.2166 13.691 10.3172 13.7627 10.4152 13.8326C10.7881 14.0984 11.1231 14.3372 11.5369 14.2991C11.7774 14.277 12.0258 14.0509 12.152 13.3764C12.4502 11.7825 13.0362 8.329 13.1717 6.90589C13.1835 6.7812 13.1686 6.62163 13.1566 6.55159C13.1446 6.48154 13.1196 6.38174 13.0285 6.30786C12.9207 6.22036 12.7542 6.20191 12.6798 6.20322C12.3413 6.20918 11.8219 6.38977 9.32252 7.42935Z" fill="white"/>
</svg>
