<svg width="20" height="22" viewBox="0 0 20 22" fill="none" xmlns="http://www.w3.org/2000/svg">
<path fill-rule="evenodd" clip-rule="evenodd" d="M11.8737 1.02675C11.488 0.868164 10.999 0.868164 10.0208 0.868164C9.04271 0.868164 8.55364 0.868164 8.16791 1.02675C7.65354 1.2382 7.24488 1.64377 7.03183 2.15424C6.93457 2.38727 6.89651 2.65827 6.88161 3.05357C6.85973 3.6345 6.55954 4.17222 6.05226 4.46288C5.54498 4.75354 4.92566 4.74268 4.4078 4.47104C4.05539 4.28618 3.79988 4.18339 3.5479 4.15048C2.99593 4.07835 2.43769 4.2268 1.996 4.56316C1.66473 4.81543 1.4202 5.23577 0.931144 6.07642C0.442091 6.91709 0.197571 7.33741 0.143071 7.74828C0.0703935 8.29608 0.219977 8.8501 0.558904 9.28848C0.713602 9.48858 0.931008 9.6567 1.26844 9.86712C1.76449 10.1765 2.08366 10.7035 2.08363 11.2848C2.0836 11.8662 1.76444 12.3931 1.26844 12.7023C0.930956 12.9129 0.713508 13.0811 0.5588 13.2812C0.219873 13.7195 0.0702998 14.2735 0.142966 14.8213C0.197466 15.2321 0.441998 15.6525 0.931039 16.4932C1.42009 17.3338 1.66462 17.7542 1.99589 18.0064C2.43758 18.3427 2.99582 18.4912 3.5478 18.4191C3.79977 18.3862 4.05526 18.2834 4.40763 18.0986C4.92554 17.8269 5.54489 17.8161 6.05221 18.1067C6.55952 18.3974 6.85972 18.9351 6.88161 19.5162C6.89651 19.9114 6.93457 20.1824 7.03183 20.4155C7.24488 20.9259 7.65354 21.3315 8.16791 21.543C8.55364 21.7015 9.04271 21.7015 10.0208 21.7015C10.999 21.7015 11.488 21.7015 11.8737 21.543C12.3881 21.3315 12.7968 20.9259 13.0098 20.4155C13.1071 20.1824 13.1452 19.9114 13.1601 19.5161C13.182 18.9351 13.4821 18.3974 13.9894 18.1067C14.4967 17.816 15.116 17.8269 15.634 18.0986C15.9864 18.2834 16.2418 18.3861 16.4937 18.419C17.0457 18.4912 17.604 18.3427 18.0456 18.0064C18.377 17.7541 18.6215 17.3338 19.1105 16.4931C19.5996 15.6524 19.8441 15.2321 19.8986 14.8213C19.9713 14.2735 19.8217 13.7194 19.4828 13.2811C19.328 13.081 19.1106 12.9127 18.7731 12.7023C18.2772 12.3931 17.958 11.8661 17.958 11.2847C17.958 10.7034 18.2772 10.1766 18.7731 9.86733C19.1107 9.65681 19.3281 9.48868 19.4829 9.28848C19.8218 8.85017 19.9714 8.29615 19.8987 7.74834C19.8442 7.33749 19.5997 6.91715 19.1106 6.0765C18.6216 5.23584 18.3771 4.81551 18.0457 4.56324C17.6041 4.22687 17.0458 4.07842 16.4939 4.15055C16.2419 4.18347 15.9864 4.28625 15.6341 4.47108C15.1161 4.74274 14.4968 4.7536 13.9895 4.46291C13.4822 4.17224 13.182 3.63448 13.16 3.05352C13.1451 2.65825 13.1071 2.38726 13.0098 2.15424C12.7968 1.64377 12.3881 1.2382 11.8737 1.02675ZM10.0208 14.4098C11.7599 14.4098 13.1696 13.0108 13.1696 11.2848C13.1696 9.55889 11.7599 8.15983 10.0208 8.15983C8.28177 8.15983 6.87204 9.55889 6.87204 11.2848C6.87204 13.0108 8.28177 14.4098 10.0208 14.4098Z" fill="#333333"/>
</svg>
