<svg width="19" height="22" viewBox="0 0 19 22" fill="none" xmlns="http://www.w3.org/2000/svg">
<path d="M16.7917 2.91048H12.4375C12 1.70215 10.8542 0.827148 9.5 0.827148C8.14583 0.827148 7 1.70215 6.5625 2.91048H2.20833C1.0625 2.91048 0.125 3.84798 0.125 4.99381V19.5771C0.125 20.723 1.0625 21.6605 2.20833 21.6605H16.7917C17.9375 21.6605 18.875 20.723 18.875 19.5771V4.99381C18.875 3.84798 17.9375 2.91048 16.7917 2.91048ZM9.5 2.91048C10.0729 2.91048 10.5417 3.37923 10.5417 3.95215C10.5417 4.52506 10.0729 4.99381 9.5 4.99381C8.92708 4.99381 8.45833 4.52506 8.45833 3.95215C8.45833 3.37923 8.92708 2.91048 9.5 2.91048ZM9.5 7.07715C11.2292 7.07715 12.625 8.47298 12.625 10.2021C12.625 11.9313 11.2292 13.3271 9.5 13.3271C7.77083 13.3271 6.375 11.9313 6.375 10.2021C6.375 8.47298 7.77083 7.07715 9.5 7.07715ZM15.75 19.5771H3.25V18.1188C3.25 16.0355 7.41667 14.8896 9.5 14.8896C11.5833 14.8896 15.75 16.0355 15.75 18.1188V19.5771Z" fill="#333333"/>
</svg>
