<svg width="22" height="23" viewBox="0 0 22 23" fill="none" xmlns="http://www.w3.org/2000/svg">
<path fill-rule="evenodd" clip-rule="evenodd" d="M3.68746 9.67796V7.45215C3.68746 3.41357 6.96138 0.139648 11 0.139648C15.0385 0.139648 18.3125 3.41357 18.3125 7.45215V9.67796C19.5202 9.76821 20.3065 9.99581 20.8814 10.5707C21.8333 11.5227 21.8333 13.0547 21.8333 16.1188C21.8333 19.1829 21.8333 20.715 20.8814 21.6669C19.9294 22.6188 18.3974 22.6188 15.3333 22.6188H6.66663C3.60249 22.6188 2.07043 22.6188 1.11853 21.6669C0.166626 20.715 0.166626 19.1829 0.166626 16.1188C0.166626 13.0547 0.166626 11.5227 1.11853 10.5707C1.69338 9.99581 2.47981 9.76821 3.68746 9.67796ZM5.31246 7.45215C5.31246 4.31103 7.85884 1.76465 11 1.76465C14.1411 1.76465 16.6875 4.31103 16.6875 7.45215V9.62271C16.2725 9.61881 15.8224 9.61881 15.3333 9.61881H6.66663C6.17749 9.61881 5.72739 9.61881 5.31246 9.62271V7.45215ZM13.1666 16.1188C13.1666 17.3155 12.1966 18.2855 11 18.2855C9.80331 18.2855 8.83329 17.3155 8.83329 16.1188C8.83329 14.9222 9.80331 13.9521 11 13.9521C12.1966 13.9521 13.1666 14.9222 13.1666 16.1188Z" fill="#333333"/>
</svg>
