<svg width="31" height="30" viewBox="0 0 31 30" fill="none" xmlns="http://www.w3.org/2000/svg">
<path id="Vector" d="M15.5 14.6034C17.3841 14.6034 19.191 13.8754 20.5232 12.5797C21.8555 11.284 22.6039 9.52667 22.6039 7.69426C22.6039 5.86185 21.8555 4.10449 20.5232 2.80879C19.191 1.51308 17.3841 0.785156 15.5 0.785156C13.6159 0.785156 11.809 1.51308 10.4768 2.80879C9.14452 4.10449 8.39607 5.86185 8.39607 7.69426C8.39607 9.52667 9.14452 11.284 10.4768 12.5797C11.809 13.8754 13.6159 14.6034 15.5 14.6034ZM15.5 17.6389C6.05486 17.6389 0 22.7082 0 25.1763V29.7852H31V25.1763C31 22.1915 25.2678 17.6389 15.5 17.6389Z" fill="#E0E0E0"/>
</svg>
