<svg width="46" height="44" viewBox="0 0 46 44" fill="none" xmlns="http://www.w3.org/2000/svg">
    <path
        d="M21.3869 3.01407C22.0392 1.44572 24.2609 1.44572 24.9132 3.01407L28.9382 12.6914C29.5273 14.1076 30.8592 15.0753 32.3881 15.1978L42.8356 16.0354C44.5287 16.1712 45.2153 18.2842 43.9253 19.3892L35.9654 26.2077C34.8005 27.2055 34.2918 28.7712 34.6477 30.2632L37.0796 40.4582C37.4737 42.1104 35.6763 43.4163 34.2267 42.5309L25.2822 37.0676C23.9732 36.2681 22.3269 36.2681 21.0179 37.0676L21.5863 37.9982L21.0179 37.0676L12.0734 42.5309C10.6238 43.4163 8.82642 42.1104 9.22054 40.4582L11.6524 30.2632C12.0083 28.7712 11.4996 27.2055 10.3347 26.2077L2.37482 19.3892C1.0848 18.2842 1.77136 16.1712 3.46453 16.0354L13.912 15.1978C15.4409 15.0753 16.7728 14.1076 17.3618 12.6914L21.3869 3.01407Z"
        fill="#F5F7F9" stroke="#E0E0E0" stroke-width="2.18077" />
</svg>