<svg width="22" height="23" viewBox="0 0 22 23" fill="none" xmlns="http://www.w3.org/2000/svg">
<path d="M4.23454 20.7587L2.33329 7.45215H19.6666L17.7654 20.7587C17.6916 21.275 17.434 21.7474 17.04 22.0891C16.646 22.4308 16.1419 22.6188 15.6204 22.6188H6.37954C5.858 22.6188 5.35395 22.4308 4.95992 22.0891C4.56589 21.7474 4.30834 21.275 4.23454 20.7587ZM20.75 3.11881H15.3333V2.03548C15.3333 1.74816 15.2192 1.47261 15.016 1.26945C14.8128 1.06628 14.5373 0.952148 14.25 0.952148H7.74996C7.46264 0.952148 7.18709 1.06628 6.98393 1.26945C6.78076 1.47261 6.66663 1.74816 6.66663 2.03548V3.11881H1.24996C0.962641 3.11881 0.687091 3.23295 0.483927 3.43612C0.280763 3.63928 0.166626 3.91483 0.166626 4.20215C0.166626 4.48947 0.280763 4.76502 0.483927 4.96818C0.687091 5.17134 0.962641 5.28548 1.24996 5.28548H20.75C21.0373 5.28548 21.3128 5.17134 21.516 4.96818C21.7192 4.76502 21.8333 4.48947 21.8333 4.20215C21.8333 3.91483 21.7192 3.63928 21.516 3.43612C21.3128 3.23295 21.0373 3.11881 20.75 3.11881Z" fill="#333333"/>
</svg>
