<svg width="31" height="30" viewBox="0 0 31 30" fill="none" xmlns="http://www.w3.org/2000/svg">
<path d="M15 15.2571C16.4207 15.2571 17.7831 14.6928 18.7877 13.6882C19.7922 12.6837 20.3566 11.3212 20.3566 9.90054C20.3566 8.47988 19.7922 7.11741 18.7877 6.11286C17.7831 5.1083 16.4207 4.54395 15 4.54395C13.5793 4.54395 12.2169 5.1083 11.2123 6.11286C10.2078 7.11741 9.64341 8.47988 9.64341 9.90054C9.64341 11.3212 10.2078 12.6837 11.2123 13.6882C12.2169 14.6928 13.5793 15.2571 15 15.2571ZM15 17.6106C7.87806 17.6106 3.3125 21.5408 3.3125 23.4543V27.0275H26.6875V23.4543C26.6875 21.1402 22.3652 17.6106 15 17.6106Z" fill="black"/>
<path d="M15 15.2571C16.4207 15.2571 17.7831 14.6928 18.7877 13.6882C19.7922 12.6837 20.3566 11.3212 20.3566 9.90054C20.3566 8.47988 19.7922 7.11741 18.7877 6.11286C17.7831 5.1083 16.4207 4.54395 15 4.54395C13.5793 4.54395 12.2169 5.1083 11.2123 6.11286C10.2078 7.11741 9.64341 8.47988 9.64341 9.90054C9.64341 11.3212 10.2078 12.6837 11.2123 13.6882C12.2169 14.6928 13.5793 15.2571 15 15.2571ZM15 17.6106C7.87806 17.6106 3.3125 21.5408 3.3125 23.4543V27.0275H26.6875V23.4543C26.6875 21.1402 22.3652 17.6106 15 17.6106Z" fill="url(#paint0_linear_110_2399)"/>
<path d="M1 1.78516V0.785156C0.447715 0.785156 0 1.23287 0 1.78516L1 1.78516ZM1 2.78516H7V0.785156H1V2.78516ZM2 7.78516V1.78516H0V7.78516H2Z" fill="#38A8FA"/>
<path d="M1 28.7852V29.7852C0.447715 29.7852 0 29.3374 0 28.7852H1ZM1 27.7852H7V29.7852H1V27.7852ZM2 22.7852V28.7852H0V22.7852H2Z" fill="#38A8FA"/>
<path d="M30 1.78516V0.785156C30.5523 0.785156 31 1.23287 31 1.78516L30 1.78516ZM30 2.78516H24V0.785156H30V2.78516ZM29 7.78516V1.78516H31V7.78516H29Z" fill="#38A8FA"/>
<path d="M30 28.7852V29.7852C30.5523 29.7852 31 29.3374 31 28.7852H30ZM30 27.7852H24V29.7852H30V27.7852ZM29 22.7852V28.7852H31V22.7852H29Z" fill="#38A8FA"/>
<defs>
<linearGradient id="paint0_linear_110_2399" x1="14.9954" y1="30.1289" x2="14.9954" y2="4.01761" gradientUnits="userSpaceOnUse">
<stop stop-color="#0167CA"/>
<stop offset="1" stop-color="#38A8FA"/>
</linearGradient>
</defs>
</svg>
