<svg width="40" height="45" viewBox="0 0 40 45" fill="none" xmlns="http://www.w3.org/2000/svg">
<rect x="1" y="2.78516" width="38" height="38" rx="19" stroke="#38A8FA" stroke-width="2"/>
<path d="M20 21.2679C21.4586 21.2679 22.8575 20.7157 23.889 19.7328C24.9204 18.7498 25.4998 17.4166 25.4998 16.0265C25.4998 14.6364 24.9204 13.3033 23.889 12.3203C22.8575 11.3374 21.4586 10.7852 20 10.7852C18.5414 10.7852 17.1425 11.3374 16.111 12.3203C15.0796 13.3033 14.5002 14.6364 14.5002 16.0265C14.5002 17.4166 15.0796 18.7498 16.111 19.7328C17.1425 20.7157 18.5414 21.2679 20 21.2679ZM20 23.5708C12.6876 23.5708 8 27.4164 8 29.2888V32.7852H32V29.2888C32 27.0245 27.5622 23.5708 20 23.5708Z" fill="black"/>
<path d="M20 21.2679C21.4586 21.2679 22.8575 20.7157 23.889 19.7328C24.9204 18.7498 25.4998 17.4166 25.4998 16.0265C25.4998 14.6364 24.9204 13.3033 23.889 12.3203C22.8575 11.3374 21.4586 10.7852 20 10.7852C18.5414 10.7852 17.1425 11.3374 16.111 12.3203C15.0796 13.3033 14.5002 14.6364 14.5002 16.0265C14.5002 17.4166 15.0796 18.7498 16.111 19.7328C17.1425 20.7157 18.5414 21.2679 20 21.2679ZM20 23.5708C12.6876 23.5708 8 27.4164 8 29.2888V32.7852H32V29.2888C32 27.0245 27.5622 23.5708 20 23.5708Z" fill="url(#paint0_linear_110_2400)"/>
<path d="M3 1.78516L37 43.2852" stroke="#38A8FA" stroke-width="2" stroke-linecap="round"/>
<defs>
<linearGradient id="paint0_linear_110_2400" x1="19.9953" y1="35.8199" x2="19.9953" y2="10.2701" gradientUnits="userSpaceOnUse">
<stop stop-color="#0167CA"/>
<stop offset="1" stop-color="#38A8FA"/>
</linearGradient>
</defs>
</svg>
