<svg width="635" height="519" viewBox="0 0 635 519" fill="none" xmlns="http://www.w3.org/2000/svg">
<g opacity="0.1">
<path d="M470.378 226.845C460.734 185.392 439.014 147.73 407.965 118.621C376.915 89.5117 337.932 70.2636 295.943 63.3105C253.955 56.3573 210.847 62.0113 172.072 79.5575C133.297 97.1037 100.595 125.754 78.1033 161.886C55.6111 198.017 44.3382 240.007 45.7102 282.545C47.0822 325.083 61.0374 366.259 85.8112 400.866C110.585 435.473 145.064 461.957 184.89 476.968C224.715 491.979 268.097 494.844 309.55 485.199" stroke="url(#paint0_linear_110_1653)" stroke-width="2"/>
<path d="M476.666 100.734C519.636 153.974 541.548 221.146 538.239 289.484C534.93 357.821 506.63 422.561 458.718 471.401C410.805 520.241 346.619 549.776 278.357 554.394C210.095 559.011 142.516 538.39 88.4624 496.448C34.4085 454.505 -2.35266 394.166 -14.8349 326.897C-27.3172 259.628 -14.6506 190.117 20.7577 131.575C56.166 73.0321 111.848 29.5384 177.222 9.35908C242.596 -10.8203 313.105 -6.2788 375.35 22.1204" stroke="url(#paint1_linear_110_1653)" stroke-width="2"/>
<circle cx="4.94459" cy="4.94459" r="4.94459" transform="matrix(-0.0563501 -0.998411 -0.998411 0.0563501 316.67 487.717)" fill="#181818"/>
<circle cx="4.94459" cy="4.94459" r="4.94459" transform="matrix(-0.0563501 -0.998411 -0.998411 0.0563501 382.296 27.1484)" fill="#181818"/>
</g>
<defs>
<linearGradient id="paint0_linear_110_1653" x1="304.892" y1="501.484" x2="498.007" y2="201.874" gradientUnits="userSpaceOnUse">
<stop stop-color="#151515"/>
<stop offset="1" stop-color="#A0A0A0" stop-opacity="0.64"/>
</linearGradient>
<linearGradient id="paint1_linear_110_1653" x1="356.845" y1="74.3414" x2="460.599" y2="72.4088" gradientUnits="userSpaceOnUse">
<stop stop-color="#151515"/>
<stop offset="0.314" stop-color="#151515"/>
<stop offset="1" stop-color="#A0A0A0" stop-opacity="0.08"/>
</linearGradient>
</defs>
</svg>
