<svg width="1440" height="383" viewBox="0 0 1440 383" fill="none" xmlns="http://www.w3.org/2000/svg">
<path d="M-159.204 66.9287C-100.966 33.5746 -28.9767 26.8208 37.0927 24.309C90.901 22.2634 138.478 29.9998 184.213 58.7327C213.156 76.9164 235.044 96.4984 263.715 116.515C332.45 164.504 394.7 204.842 471.076 242.325C642.562 326.485 829.437 389.768 1021.65 358.71C1091.23 347.467 1158.39 330.256 1220.81 297.034C1270.18 270.766 1318.25 241.404 1364.45 209.951C1424.06 169.366 1514.93 100.46 1592.71 129.629" stroke="white" stroke-width="2" stroke-linecap="round"/>
<path d="M-161.268 72.8913C-103.608 38.5484 -31.7437 30.5675 34.2732 26.929C88.0389 23.9657 135.741 30.8892 181.959 58.8377C211.208 76.525 233.428 95.7307 262.435 115.255C331.979 162.065 394.908 201.335 471.913 237.51C644.809 318.732 832.737 378.818 1024.39 344.485C1093.77 332.056 1160.62 313.702 1222.47 279.42C1271.38 252.314 1318.95 222.136 1364.6 189.899C1423.51 148.303 1513.19 77.857 1591.46 105.695" stroke="white" stroke-width="2" stroke-linecap="round"/>
<path d="M-150.263 82.3335C-92.0411 48.9525 -20.0545 42.1654 46.0137 39.6231C99.8211 37.5527 147.402 45.267 193.149 73.9788C222.101 92.1491 243.999 111.721 272.678 131.724C341.436 179.682 403.704 219.991 480.098 257.439C651.622 341.519 838.527 404.716 1030.72 373.569C1100.3 362.293 1167.45 345.052 1229.86 311.801C1279.21 285.51 1327.27 256.126 1373.46 224.651C1433.05 184.039 1523.88 115.091 1601.68 144.224" stroke="white" stroke-width="2" stroke-linecap="round"/>
</svg>
